<?xml version="1.0" encoding="UTF-8" standalone="no"?><!-- Created with Inkscape (http://www.inkscape.org/) --><svg version="1.1" id="svg2" width="2017.1294" height="2852.894" viewBox="0 0 2017.1294 2852.894" sodipodi:docname="fatura.svg" inkscape:version="1.2 (dc2aedaf03, 2022-05-15)" xmlns:inkscape="http://www.inkscape.org/namespaces/inkscape" xmlns:sodipodi="http://sodipodi.sourceforge.net/DTD/sodipodi-0.dtd" xmlns="http://www.w3.org/2000/svg" xmlns:svg="http://www.w3.org/2000/svg"><defs id="defs6"><rect x="391.569" y="771.02762" width="894.54059" height="105.67689" id="rect2228" /><rect x="73.926841" y="92.408552" width="916.16478" height="382.83543" id="rect1888" /><rect x="195.03134" y="2188.4932" width="303.76562" height="108.73428" id="rect1830" /><rect x="1273.7445" y="484.98943" width="629.96847" height="108.73428" id="rect1741" /><rect x="1301.3595" y="555.75301" width="526.41201" height="43.148526" id="rect1681" /><rect x="1273.7445" y="484.98944" width="629.96844" height="108.73428" id="rect1741-5" /><rect x="73.926842" y="92.408554" width="916.16479" height="382.83542" id="rect1888-9" /></defs><sodipodi:namedview id="namedview4" pagecolor="#ffffff" bordercolor="#000000" borderopacity="0.25" inkscape:showpageshadow="2" inkscape:pageopacity="0.0" inkscape:pagecheckerboard="0" inkscape:deskcolor="#d1d1d1" showgrid="false" inkscape:zoom="0.58626077" inkscape:cx="1003.8195" inkscape:cy="798.27958" inkscape:window-width="1920" inkscape:window-height="1017" inkscape:window-x="1912" inkscape:window-y="-8" inkscape:window-maximized="1" inkscape:current-layer="g8" /><g inkscape:groupmode="layer" inkscape:label="Image" id="g8"><rect style="display:inline;fill:#cacac8;fill-opacity:1;stroke-width:47.8324;paint-order:fill markers stroke" id="rect1301" width="2014.4091" height="875.97821" x="2.2254267" y="0.81695127" sodipodi:insensitive="true" /><rect style="fill:#a6a6a6;fill-opacity:1;stroke-width:53.964;paint-order:fill markers stroke" id="rect2284" width="1744.9573" height="92.109177" x="163.74966" y="917.68036" /><path style="display:inline;fill:#012e6e;stroke-width:2.25882" d="m 1555.1534,292.57229 c -4.1944,-11.45292 -10.1182,-29.8436 -10.1182,-31.41245 0,-1.04786 40.6588,-1.9052 90.3529,-1.9052 h 90.353 l -0.1636,-5.08235 c -0.09,-2.7953 -7.4594,-26.42825 -16.3764,-52.51765 l -16.213,-47.43528 -92.4169,-1.12941 -92.4169,-1.12941 -14.3125,-42.87258 c -7.8719,-23.5799 -14.3125,-43.6552 -14.3125,-44.61177 0,-0.95656 120.96,-1.73919 268.8,-1.73919 h 268.8 v 116.32941 116.3294 h -230.4709 c -182.3193,0 -230.6869,-0.58991 -231.505,-2.82352 z" id="path1495" /><path style="display:inline;fill:#012e6e;stroke-width:2.25882" d="m 133.1529,964.8013 v -55.34732 l 402.44107,0.57089 402.44101,0.57092 17.70017,53.04601 c 9.7351,29.1753 17.70005,53.8247 17.70005,54.7764 0,0.9518 -189.06344,1.7305 -420.14109,1.7305 H 133.1529 Z" id="path1481" /><path style="display:inline;fill:#012e6e;stroke-width:2.25882" d="m 1377.8822,1811.8439 v -39.5518 l 105.404,0.5871 105.404,0.587 13.012,38.9647 13.0121,38.9647 h -118.4161 -118.416 z" id="path1479" /><path style="display:inline;fill:#012e6e;stroke-width:2.25882" d="m 1348.5175,2484.5373 c 0,-9.2022 7.0171,-17.432 16.9412,-17.0476 10.0324,0.3886 16.9412,9.4322 16.9412,17.2929 0,9.2996 -8.6309,22.4604 -15.7537,30.3559 -5.7888,-6.6415 -18.0008,-21.141 -18.1287,-30.6012 z m 24.8471,-0.6711 c 0,-2.3973 -1.8051,-5.3247 -4.0113,-6.5054 -8.8772,-4.751 -16.6845,8.0653 -7.9058,12.9781 5.1522,2.8833 11.9171,-0.7909 11.9171,-6.4727 z" id="path1477" sodipodi:nodetypes="cssccssss" /><path style="display:inline;fill:#012e6e;stroke-width:2.25882" d="m 1345.1293,2533.7955 c -32.2268,-14.9205 -38.1816,-58.7904 -11.0211,-81.1943 32.1925,-26.555 79.816,-4.5308 79.816,36.9121 0,35.3634 -36.8401,59.0768 -68.7949,44.2822 z m 40.5808,-4.0894 c 10.02,-5.0681 14.6794,-9.7276 19.8411,-19.8413 10.7949,-21.1514 2.3253,-48.1129 -18.6337,-59.3169 -8.3254,-4.4504 -12.676,-5.283 -24.0432,-4.6012 -25.2017,1.5118 -41.7853,18.9194 -41.7853,43.8613 0,33.5058 34.7907,54.9861 64.6211,39.8981 z" id="path1475" /><path style="display:inline;fill:#012e6e;stroke-width:2.25882" d="m 768.00115,2535.5402 c -26.91084,-10.7308 -33.05465,-50.7278 -10.95039,-71.2883 15.30734,-14.2382 41.76137,-12.8538 56.54671,2.9595 7.73748,8.2757 10.87311,16.6614 10.87311,29.0783 0,24.483 -17.30715,41.9981 -41.15097,41.6451 -5.31992,-0.079 -12.21321,-1.1563 -15.31846,-2.3946 z m 13.55179,-7.6269 c 0,-4.5177 -1.12942,-5.6471 -5.64706,-5.6471 -6.31924,0 -6.64736,0.6867 -3.30877,6.9249 3.38155,6.3186 8.95583,5.523 8.95583,-1.2778 z m 13.47347,1.2778 c 3.33859,-6.2382 3.01047,-6.9249 -3.30877,-6.9249 -4.51764,0 -5.64706,1.1294 -5.64706,5.6471 0,6.8008 5.57428,7.5964 8.95583,1.2778 z m -30.32177,-4.5159 c -0.81891,-1.325 -3.14789,-2.409 -5.17557,-2.409 -3.08321,0 -2.96954,0.5243 0.69447,3.2035 4.73125,3.4596 6.8753,3.0794 4.4811,-0.7945 z m 42.95774,1.0511 c 4.29554,-3.2489 4.28626,-3.3178 -0.45601,-3.3883 -2.66238,-0.038 -5.42576,1.4529 -6.14088,3.3164 -1.64953,4.2986 0.97084,4.3273 6.59689,0.072 z m -46.43886,-13.6248 c 0,-3.6611 -1.26591,-5.6471 -3.5997,-5.6471 -1.97984,0 -4.13132,-2.0329 -4.78109,-4.5176 -1.51629,-5.7982 -5.17215,-5.8734 -5.17215,-0.1062 0,7.4275 5.01288,15.9182 9.39788,15.9182 2.9262,0 4.15506,-1.6702 4.15506,-5.6471 z m 20.32942,0 c 0,-4.948 -0.97882,-5.6471 -7.90589,-5.6471 -6.16042,0 -7.90588,0.9144 -7.90588,4.1411 0,5.6799 1.93846,7.1531 9.41177,7.1531 5.32078,0 6.4,-0.9524 6.4,-5.6471 z m 19.9218,-0.5647 c 0.63288,-4.4562 -0.27157,-5.0824 -7.34117,-5.0824 -7.14778,0 -8.06299,0.6574 -8.06299,5.7903 0,5.1718 0.784,5.7146 7.34118,5.0824 5.62662,-0.5426 7.50975,-1.895 8.06298,-5.7903 z m 16.27528,0.4176 c 2.92165,-7.6845 2.79561,-14.5353 -0.26738,-14.5353 -1.35866,0 -3.00191,2.033 -3.65168,4.5177 -0.64977,2.4847 -2.58755,4.5176 -4.30618,4.5176 -1.71862,0 -3.12478,0.9334 -3.12478,2.0741 0,1.1407 -0.61698,3.6819 -1.37109,5.647 -1.03621,2.7005 0.0809,3.5731 4.57355,3.5731 4.30277,0 6.55308,-1.6004 8.14756,-5.7942 z m 2.20292,-22.5206 c 0,-7.681 -6.29083,-16.8617 -11.55391,-16.8617 -3.03583,0 -4.25786,1.6207 -4.25786,5.647 0,3.5545 1.27628,5.6471 3.44414,5.6471 1.89427,0 4.41031,2.5412 5.59116,5.6471 2.78054,7.3134 6.77647,7.2666 6.77647,-0.079 z m -67.76471,0.023 c 0,-1.8942 2.54118,-4.4101 5.64706,-5.591 3.45726,-1.3144 5.64706,-3.9204 5.64706,-6.7205 0,-7.1606 -8.30782,-5.7561 -12.36552,2.0906 -3.95342,7.6452 -4.47652,13.6652 -1.18742,13.6652 1.24235,0 2.25882,-1.5498 2.25882,-3.4443 z m 29.36471,-11.2381 c 0,-4.7177 -1.07168,-5.647 -6.51314,-5.647 -5.15362,0 -6.73848,1.1786 -7.59265,5.647 -0.9783,5.1176 -0.36767,5.6471 6.51314,5.6471 6.59294,0 7.59265,-0.7436 7.59265,-5.6471 z m 18.62343,0 c -0.85417,-4.4684 -2.43903,-5.647 -7.59265,-5.647 -5.44146,0 -6.51314,0.9293 -6.51314,5.647 0,4.9035 0.99971,5.6471 7.59265,5.6471 6.88081,0 7.49144,-0.5295 6.51314,-5.6471 z m -33.30579,-12.4226 c 0.76782,-1.2423 0.37955,-2.2588 -0.8628,-2.2588 -1.24235,0 -2.88702,1.0165 -3.65484,2.2588 -0.76782,1.2424 -0.37955,2.2588 0.8628,2.2588 1.24235,0 2.88702,-1.0164 3.65484,-2.2588 z m 14.68236,-2.2588 c 0,-2.4847 -1.48895,-4.5177 -3.30877,-4.5177 -1.81982,0 -4.39676,2.033 -5.72653,4.5177 -2.12225,3.9654 -1.71781,4.5176 3.30877,4.5176 4.22064,0 5.72653,-1.1879 5.72653,-4.5176 z m 13.55294,0 c -1.32977,-2.4847 -3.90671,-4.5177 -5.72653,-4.5177 -1.81982,0 -3.30877,2.033 -3.30877,4.5177 0,3.3297 1.50589,4.5176 5.72653,4.5176 5.02658,0 5.43102,-0.5522 3.30877,-4.5176 z m 11.29412,2.2583 c -4.42362,-2.8588 -7.41387,-2.8588 -5.64706,0 0.76782,1.2424 3.11487,2.2433 5.21567,2.2243 3.29171,-0.029 3.35134,-0.3373 0.43139,-2.2243 z" id="path1473" sodipodi:nodetypes="csssscssssssssssssscsssssssssssssssssssssssssssssssssssssssssssssssssssssssssssssssssssscs" /><path style="display:inline;fill:#012e6e;stroke-width:2.25882" d="m 200.26246,2479.3438 c -3.85206,-6.521 -3.49386,-11.2894 0.84814,-11.2894 2.92741,0 9.42155,13.2376 7.78958,15.8782 -2.26595,3.6663 -4.44526,2.5087 -8.63772,-4.5888 z" id="path1471" /><path style="display:inline;fill:#012e6e;stroke-width:2.25882" d="m 220.79996,2514.5905 c -3.47097,-7.2786 -3.20621,-10.3949 0.88321,-10.3949 2.74956,0 9.10072,13.3632 7.54642,15.8782 -2.39015,3.8673 -4.68135,2.3769 -8.42963,-5.4833 z" id="path1469" /><path style="display:inline;fill:#012e6e;stroke-width:2.25882" d="m 204.98121,2517.1838 c -11.90901,-12.667 -19.44191,-34.3146 -14.35931,-41.2653 2.899,-3.9647 3.1827,-3.9021 6.0251,1.3289 1.6406,3.0191 3.1964,9.3617 3.45735,14.0946 0.48406,8.7798 6.08155,17.3713 11.31765,17.3713 3.32364,0 9.9427,8.6052 9.9427,12.9261 0,5.4568 -9.49089,2.8757 -16.38349,-4.4556 z" id="path1467" /><path style="display:inline;fill:#012e6e;stroke-width:2.25882" d="m 189.1709,2533.4038 c -20.6151,-10.883 -27.8183,-40.5253 -14.6743,-60.3874 16.7758,-25.3499 55.88662,-24.6008 71.10171,1.3618 12.4395,21.2264 4.99806,48.8584 -15.87955,58.9653 -12.47849,6.0405 -29.17229,6.0654 -40.54786,0.061 z m 40.09201,-4.1944 c 14.1831,-7.9608 21.94207,-27.3092 17.24207,-42.9965 -5.31158,-17.7284 -18.43999,-27.7151 -36.43439,-27.7151 -37.59679,0 -52.48839,46.3027 -22.17129,68.9377 11.4245,8.5296 28.05648,9.2429 41.36361,1.7739 z" id="path1465" /><path style="display:inline;fill:#012e6e;stroke-width:2.25882" d="m -3.195938e-6,2793.325 v -18.0706 H 76.799997 c 60.490403,0 76.800003,-0.6078 76.800003,-2.8624 0,-1.5744 -7.4566,-25.2073 -16.5702,-52.5176 l -16.5701,-49.6553 -60.229903,-0.6015 -60.229800195938,-0.6017 v -45.1395 -45.1396 H 240.01364 480.02728 l 38.76017,116.3294 38.76019,116.3294 H 278.77381 -3.195938e-6 Z" id="path856" /><rect style="display:inline;fill:#ffffff;fill-opacity:1;stroke-width:26.7579;paint-order:fill markers stroke" id="rect1497" width="294.80997" height="114.17908" x="1348.4347" y="161.74742" transform="matrix(1,0,0.31780487,0.94815614,0,0)" /><rect style="display:inline;fill:#012e6e;fill-opacity:1;stroke-width:30.6032;paint-order:fill markers stroke" id="rect1603" width="567.23328" height="6.8407516" x="1276.8994" y="536.04443" /><rect style="display:inline;fill:#012e6e;fill-opacity:1;stroke-width:30.6032;paint-order:fill markers stroke" id="rect1603-5" width="567.23328" height="6.8407516" x="150.90417" y="536.53882" /><text xml:space="preserve" id="text1739" style="font-size:42.6667px;font-family:'Franklin Gothic Medium Cond';-inkscape-font-specification:'Franklin Gothic Medium Cond';white-space:pre;shape-inside:url(#rect1741);fill:#000000;fill-opacity:1;stroke-width:48.155;paint-order:fill markers stroke" transform="translate(10.355646,-0.140182)"><tspan x="1273.7441" y="523.88586" id="tspan3073">Fatura Bilgileri</tspan></text><text xml:space="preserve" id="text1739-5" style="font-size:42.6667px;font-family:'Franklin Gothic Medium Cond';-inkscape-font-specification:'Franklin Gothic Medium Cond';white-space:pre;shape-inside:url(#rect1741-5);fill:#000000;fill-opacity:1;stroke-width:48.155;paint-order:fill markers stroke" transform="translate(-1117.1361,-2.793321)"><tspan x="1273.7441" y="523.88586" id="tspan3075">Müşteri Bilgileri</tspan></text><text xml:space="preserve" id="text1828" style="font-size:42.6667px;font-family:'Franklin Gothic Medium Cond';-inkscape-font-specification:'Franklin Gothic Medium Cond';white-space:pre;shape-inside:url(#rect1830);fill:#000000;fill-opacity:1;stroke-width:48.155;paint-order:fill markers stroke" transform="matrix(0.77249144,0,0,0.74374753,604.6411,846.92414)"><tspan x="195.03125" y="2227.3878" id="tspan3079"><tspan style="fill:#ffffff" id="tspan3077">www</tspan></tspan></text><text xml:space="preserve" id="text1886" style="font-size:85.3333px;font-family:'Franklin Gothic Medium Cond';-inkscape-font-specification:'Franklin Gothic Medium Cond';white-space:pre;shape-inside:url(#rect1888);fill:#000000;fill-opacity:1;stroke-width:48.155;paint-order:fill markers stroke" transform="translate(382.03054)"><tspan x="73.927734" y="170.19936" id="tspan3081">$FirmaAdıLogolu$</tspan></text><text xml:space="preserve" id="text1886-6" style="font-size:85.3333px;font-family:'Franklin Gothic Medium Cond';-inkscape-font-specification:'Franklin Gothic Medium Cond';white-space:pre;shape-inside:url(#rect1888-9);shape-padding:10.561;fill:#000000;fill-opacity:1;stroke-width:48.155;paint-order:fill markers stroke" transform="translate(34.27569,-12.588573)"><tspan x="84.488281" y="180.7599" id="tspan3083">$FirmaAdıLogosuz$</tspan></text><text xml:space="preserve" style="font-size:42.6667px;font-family:'Franklin Gothic Medium Cond';-inkscape-font-specification:'Franklin Gothic Medium Cond';fill:#000000;fill-opacity:1;stroke-width:48.155;paint-order:fill markers stroke" x="160.12492" y="597.45831" id="text1975"><tspan sodipodi:role="line" id="tspan1973" x="160.12492" y="597.45831">Adı Soyadı  :</tspan></text><text xml:space="preserve" style="font-size:42.6667px;font-family:'Franklin Gothic Medium Cond';-inkscape-font-specification:'Franklin Gothic Medium Cond';fill:#000000;fill-opacity:1;stroke-width:48.155;paint-order:fill markers stroke" x="160.12492" y="647.45831" id="text1975-7"><tspan sodipodi:role="line" id="tspan1973-1" x="160.12492" y="647.45831">Firma Adı    :</tspan></text><text xml:space="preserve" style="font-size:42.6667px;font-family:'Franklin Gothic Medium Cond';-inkscape-font-specification:'Franklin Gothic Medium Cond';fill:#000000;fill-opacity:1;stroke-width:48.155;paint-order:fill markers stroke" x="160.12492" y="697.45831" id="text1975-1"><tspan sodipodi:role="line" id="tspan1973-8" x="160.12492" y="697.45831">Telefon         :</tspan></text><text xml:space="preserve" style="font-size:42.6667px;font-family:'Franklin Gothic Medium Cond';-inkscape-font-specification:'Franklin Gothic Medium Cond';fill:#000000;fill-opacity:1;stroke-width:48.155;paint-order:fill markers stroke" x="160.12492" y="747.45831" id="text1975-6"><tspan sodipodi:role="line" id="tspan1973-4" x="160.12492" y="747.45831">Vergi No       :</tspan></text><text xml:space="preserve" style="font-size:42.6667px;font-family:'Franklin Gothic Medium Cond';-inkscape-font-specification:'Franklin Gothic Medium Cond';fill:#000000;fill-opacity:1;stroke-width:48.155;paint-order:fill markers stroke" x="159.71466" y="797.84637" id="text1975-3"><tspan sodipodi:role="line" id="tspan1973-19" x="159.71466" y="797.84637">Adres            :</tspan></text><text xml:space="preserve" style="font-size:42.6667px;font-family:'Franklin Gothic Medium Cond';-inkscape-font-specification:'Franklin Gothic Medium Cond';white-space:pre;inline-size:523.211;fill:#000000;fill-opacity:1;stroke-width:48.155;paint-order:fill markers stroke" x="453.74649" y="738.67682" id="text1975-34" transform="translate(-65.934299,-142.63338)"><tspan x="453.74649" y="738.67682" id="tspan3087"><tspan style="font-family:'Franklin Gothic Book';-inkscape-font-specification:'Franklin Gothic Book, '" id="tspan3085">$AdSoyad$</tspan></tspan></text><text xml:space="preserve" style="font-size:42.6667px;font-family:'Franklin Gothic Medium Cond';-inkscape-font-specification:'Franklin Gothic Medium Cond';white-space:pre;inline-size:523.211;display:inline;fill:#000000;fill-opacity:1;stroke-width:48.155;paint-order:fill markers stroke" x="453.74649" y="738.67682" id="text1975-34-49" transform="translate(-61.526315,9.2923468)"><tspan x="453.74649" y="738.67682" id="tspan3091"><tspan style="font-family:'Franklin Gothic Book';-inkscape-font-specification:'Franklin Gothic Book, '" id="tspan3089">$VergiNo$</tspan></tspan></text><text xml:space="preserve" style="font-size:42.6667px;font-family:'Franklin Gothic Medium Cond';-inkscape-font-specification:'Franklin Gothic Medium Cond';white-space:pre;inline-size:523.211;display:inline;fill:#000000;fill-opacity:1;stroke-width:48.155;paint-order:fill markers stroke" x="453.74649" y="738.67682" id="text1975-34-2" transform="translate(-62.871913,-43.185973)"><tspan x="453.74649" y="738.67682" id="tspan3095"><tspan style="font-family:'Franklin Gothic Book';-inkscape-font-specification:'Franklin Gothic Book, '" id="tspan3093">$telefon$</tspan></tspan></text><text xml:space="preserve" style="font-size:42.6667px;font-family:'Franklin Gothic Medium Cond';-inkscape-font-specification:'Franklin Gothic Medium Cond';white-space:pre;inline-size:523.211;display:inline;fill:#000000;fill-opacity:1;stroke-width:48.155;paint-order:fill markers stroke" x="453.74649" y="738.67682" id="text1975-34-7" transform="translate(-65.563109,-92.973096)"><tspan x="453.74649" y="738.67682" id="tspan3099"><tspan style="font-family:'Franklin Gothic Book';-inkscape-font-specification:'Franklin Gothic Book, '" id="tspan3097">$FirmaAdı$</tspan></tspan></text><text xml:space="preserve" id="text2226" style="font-style:normal;font-variant:normal;font-weight:normal;font-stretch:normal;font-size:40px;font-family:'Franklin Gothic Book';-inkscape-font-specification:'Franklin Gothic Book, ';white-space:pre;shape-inside:url(#rect2228);fill:#000000;fill-opacity:1;stroke-width:48.155;paint-order:fill markers stroke" transform="translate(0,-6.7279897)"><tspan x="391.56836" y="807.49196" id="tspan3101">$Adres1$</tspan><tspan x="391.56836" y="857.49196" id="tspan3103">$Adres2$</tspan></text></g></svg>